<?xml version="1.0" encoding="UTF-8" standalone="no"?>
<!DOCTYPE svg PUBLIC "-//W3C//DTD SVG 1.1//EN"
 "http://www.w3.org/Graphics/SVG/1.1/DTD/svg11.dtd">
<!-- Generated by graphviz version 2.43.0 (0)
 -->
<!-- Title: %3 Pages: 1 -->
<svg width="787pt" height="805pt"
 viewBox="0.00 0.00 786.50 805.00" xmlns="http://www.w3.org/2000/svg" xmlns:xlink="http://www.w3.org/1999/xlink">
<g id="graph0" class="graph" transform="scale(1 1) rotate(0) translate(4 801)">
<title>%3</title>
<polygon fill="white" stroke="transparent" points="-4,4 -4,-801 782.5,-801 782.5,4 -4,4"/>
<!-- Library -->
<g id="node1" class="node">
<title>Library</title>
<polygon fill="LightSkyBlue" stroke="transparent" points="104,-771.5 104,-786.5 238,-786.5 238,-771.5 104,-771.5"/>
<text text-anchor="start" x="107" y="-777.6" font-family="Arial" font-weight="bold" font-size="8.00">Library: MapOf(Barcode, Album)</text>
<polygon fill="none" stroke="black" points="104,-771.5 104,-786.5 238,-786.5 238,-771.5 104,-771.5"/>
</g>
<!-- Barcode -->
<g id="node2" class="node">
<title>Barcode</title>
<ellipse fill="palegreen" stroke="black" cx="154" cy="-666.5" rx="40.68" ry="18"/>
<text text-anchor="middle" x="154" y="-664.6" font-family="Arial" font-size="8.00">Barcode: String</text>
</g>
<!-- Library&#45;&gt;Barcode -->
<g id="edge1" class="edge">
<title>Library&#45;&gt;Barcode</title>
<path fill="none" stroke="black" d="M168.34,-760.73C165.4,-741.6 160.64,-710.68 157.42,-689.74"/>
<polygon fill="black" stroke="black" points="159.13,-689.32 156.64,-684.64 155.67,-689.85 159.13,-689.32"/>
<text text-anchor="middle" x="172" y="-737.4" font-family="Arial" font-size="7.00">key</text>
</g>
<!-- Album -->
<g id="node3" class="node">
<title>Album</title>
<polygon fill="LightSkyBlue" stroke="transparent" points="221,-620 221,-713 331,-713 331,-620 221,-620"/>
<text text-anchor="start" x="246" y="-701.1" font-family="Arial" font-weight="bold" font-size="8.00">Album: Record</text>
<text text-anchor="start" x="224" y="-685.1" font-family="Arial" font-size="8.00">1 album_artist: Artist</text>
<text text-anchor="start" x="224" y="-673.1" font-family="Arial" font-size="8.00">2 album_title: String</text>
<text text-anchor="start" x="224" y="-661.1" font-family="Arial" font-size="8.00">3 pub_data: Publication&#45;Data</text>
<text text-anchor="start" x="224" y="-649.1" font-family="Arial" font-size="8.00">4 tracks: Track</text>
<text text-anchor="start" x="224" y="-637.1" font-family="Arial" font-size="8.00">5 total_tracks: Integer</text>
<text text-anchor="start" x="224" y="-625.1" font-family="Arial" font-size="8.00">6 cover_art: Image</text>
<polygon fill="black" stroke="black" points="222,-693.5 222,-693.5 331,-693.5 331,-693.5 222,-693.5"/>
<polygon fill="none" stroke="black" points="221,-620 221,-713 331,-713 331,-620 221,-620"/>
</g>
<!-- Library&#45;&gt;Album -->
<g id="edge2" class="edge">
<title>Library&#45;&gt;Album</title>
<path fill="none" stroke="black" d="M187.41,-760.73C197.72,-749.88 211.64,-735.23 225.39,-720.77"/>
<polygon fill="black" stroke="black" points="226.7,-721.92 228.87,-717.09 224.16,-719.51 226.7,-721.92"/>
<text text-anchor="middle" x="220.5" y="-737.4" font-family="Arial" font-size="7.00">value</text>
</g>
<!-- Artist -->
<g id="node4" class="node">
<title>Artist</title>
<polygon fill="LightSkyBlue" stroke="transparent" points="13.5,-215 13.5,-260 110.5,-260 110.5,-215 13.5,-215"/>
<text text-anchor="start" x="34.5" y="-248.1" font-family="Arial" font-weight="bold" font-size="8.00">Artist: Record</text>
<text text-anchor="start" x="17" y="-232.1" font-family="Arial" font-size="8.00">1 artist_name: String</text>
<text text-anchor="start" x="17" y="-220.1" font-family="Arial" font-size="8.00">2 instruments: Instrument</text>
<polygon fill="black" stroke="black" points="15,-240.5 15,-240.5 111,-240.5 111,-240.5 15,-240.5"/>
<polygon fill="none" stroke="black" points="13.5,-215 13.5,-260 110.5,-260 110.5,-215 13.5,-215"/>
</g>
<!-- Album&#45;&gt;Artist -->
<g id="edge3" class="edge">
<title>Album&#45;&gt;Artist</title>
<path fill="none" stroke="black" d="M212.86,-621.39C188.79,-603.47 165.16,-584.16 157,-572 91.4,-474.28 70.59,-331.31 64.42,-269.2"/>
<polygon fill="black" stroke="black" points="66.15,-268.96 63.93,-264.15 62.67,-269.3 66.15,-268.96"/>
<text text-anchor="middle" x="138.5" y="-495.4" font-family="Arial" font-size="7.00">album_artist</text>
</g>
<!-- Publication&#45;Data -->
<g id="node5" class="node">
<title>Publication&#45;Data</title>
<polygon fill="LightSkyBlue" stroke="transparent" points="174,-523 174,-568 286,-568 286,-523 174,-523"/>
<text text-anchor="start" x="180" y="-556.1" font-family="Arial" font-weight="bold" font-size="8.00">Publication&#45;Data: Record</text>
<text text-anchor="start" x="177" y="-540.1" font-family="Arial" font-size="8.00">1 publisher: String</text>
<text text-anchor="start" x="177" y="-528.1" font-family="Arial" font-size="8.00">2 release_date: String</text>
<polygon fill="black" stroke="black" points="175,-548.5 175,-548.5 286,-548.5 286,-548.5 175,-548.5"/>
<polygon fill="none" stroke="black" points="174,-523 174,-568 286,-568 286,-523 174,-523"/>
</g>
<!-- Album&#45;&gt;Publication&#45;Data -->
<g id="edge4" class="edge">
<title>Album&#45;&gt;Publication&#45;Data</title>
<path fill="none" stroke="black" d="M256.76,-615.72C251.67,-602.57 246.34,-588.77 241.78,-576.98"/>
<polygon fill="black" stroke="black" points="243.31,-576.09 239.88,-572.06 240.05,-577.35 243.31,-576.09"/>
<text text-anchor="middle" x="263.5" y="-592.4" font-family="Arial" font-size="7.00">pub_data</text>
</g>
<!-- Track -->
<g id="node6" class="node">
<title>Track</title>
<polygon fill="LightSkyBlue" stroke="transparent" points="320,-523 320,-568 408,-568 408,-523 320,-523"/>
<text text-anchor="start" x="336.5" y="-556.1" font-family="Arial" font-weight="bold" font-size="8.00">Track: Record</text>
<text text-anchor="start" x="323" y="-540.1" font-family="Arial" font-size="8.00">1 location: File&#45;Path</text>
<text text-anchor="start" x="323" y="-528.1" font-family="Arial" font-size="8.00">2 metadata: Track&#45;Info</text>
<polygon fill="black" stroke="black" points="321,-548.5 321,-548.5 408,-548.5 408,-548.5 321,-548.5"/>
<polygon fill="none" stroke="black" points="320,-523 320,-568 408,-568 408,-523 320,-523"/>
</g>
<!-- Album&#45;&gt;Track -->
<g id="edge5" class="edge">
<title>Album&#45;&gt;Track</title>
<path fill="none" stroke="black" d="M312.81,-615.72C322.71,-602.34 333.11,-588.27 341.93,-576.35"/>
<polygon fill="black" stroke="black" points="343.54,-577.12 345.1,-572.06 340.72,-575.04 343.54,-577.12"/>
<text text-anchor="middle" x="340" y="-592.4" font-family="Arial" font-size="7.00">tracks</text>
</g>
<!-- Image -->
<g id="node7" class="node">
<title>Image</title>
<polygon fill="LightSkyBlue" stroke="transparent" points="651.5,-215 651.5,-260 770.5,-260 770.5,-215 651.5,-215"/>
<text text-anchor="start" x="682.5" y="-248.1" font-family="Arial" font-weight="bold" font-size="8.00">Image: Record</text>
<text text-anchor="start" x="655" y="-232.1" font-family="Arial" font-size="8.00">1 image_format: Image&#45;Format</text>
<text text-anchor="start" x="655" y="-220.1" font-family="Arial" font-size="8.00">2 image_content: Binary</text>
<polygon fill="black" stroke="black" points="653,-240.5 653,-240.5 771,-240.5 771,-240.5 653,-240.5"/>
<polygon fill="none" stroke="black" points="651.5,-215 651.5,-260 770.5,-260 770.5,-215 651.5,-215"/>
</g>
<!-- Album&#45;&gt;Image -->
<g id="edge6" class="edge">
<title>Album&#45;&gt;Image</title>
<path fill="none" stroke="black" d="M339.11,-630.4C366.51,-614.04 398.36,-593.46 425,-572 541.88,-477.85 648.06,-331.39 690.93,-268.67"/>
<polygon fill="black" stroke="black" points="692.54,-269.42 693.91,-264.3 689.64,-267.45 692.54,-269.42"/>
<text text-anchor="middle" x="524" y="-495.4" font-family="Arial" font-size="7.00">cover_art</text>
</g>
<!-- Instrument -->
<g id="node9" class="node">
<title>Instrument</title>
<polygon fill="palegreen" stroke="transparent" points="8,-4 8,-133 116,-133 116,-4 8,-4"/>
<text text-anchor="start" x="14" y="-121.1" font-family="Arial" font-weight="bold" font-size="8.00">Instrument: Enumerated</text>
<text text-anchor="start" x="11" y="-105.1" font-family="Arial" font-size="8.00">1 vocals</text>
<text text-anchor="start" x="11" y="-93.1" font-family="Arial" font-size="8.00">2 guitar</text>
<text text-anchor="start" x="11" y="-81.1" font-family="Arial" font-size="8.00">3 bass</text>
<text text-anchor="start" x="11" y="-69.1" font-family="Arial" font-size="8.00">4 drums</text>
<text text-anchor="start" x="11" y="-57.1" font-family="Arial" font-size="8.00">5 keyboards</text>
<text text-anchor="start" x="11" y="-45.1" font-family="Arial" font-size="8.00">6 percussion</text>
<text text-anchor="start" x="11" y="-33.1" font-family="Arial" font-size="8.00">7 brass</text>
<text text-anchor="start" x="11" y="-21.1" font-family="Arial" font-size="8.00">8 woodwinds</text>
<text text-anchor="start" x="11" y="-9.1" font-family="Arial" font-size="8.00">9 harmonica</text>
<polygon fill="black" stroke="black" points="9,-113.5 9,-113.5 116,-113.5 116,-113.5 9,-113.5"/>
<polygon fill="none" stroke="black" points="8,-4 8,-133 116,-133 116,-4 8,-4"/>
</g>
<!-- Artist&#45;&gt;Instrument -->
<g id="edge8" class="edge">
<title>Artist&#45;&gt;Instrument</title>
<path fill="none" stroke="black" d="M62,-210.77C62,-192.41 62,-166.73 62,-142.29"/>
<polygon fill="black" stroke="black" points="63.75,-142.1 62,-137.1 60.25,-142.1 63.75,-142.1"/>
<text text-anchor="middle" x="80.5" y="-157.4" font-family="Arial" font-size="7.00">instruments</text>
</g>
<!-- File&#45;Path -->
<g id="node10" class="node">
<title>File&#45;Path</title>
<ellipse fill="palegreen" stroke="black" cx="321" cy="-406.5" rx="41.95" ry="18"/>
<text text-anchor="middle" x="321" y="-404.6" font-family="Arial" font-size="8.00">File&#45;Path: String</text>
</g>
<!-- Track&#45;&gt;File&#45;Path -->
<g id="edge9" class="edge">
<title>Track&#45;&gt;File&#45;Path</title>
<path fill="none" stroke="black" d="M355.91,-518.73C347.83,-492.97 335.53,-453.78 327.89,-429.46"/>
<polygon fill="black" stroke="black" points="329.5,-428.75 326.34,-424.5 326.16,-429.8 329.5,-428.75"/>
<text text-anchor="middle" x="362.5" y="-495.4" font-family="Arial" font-size="7.00">location</text>
</g>
<!-- Track&#45;Info -->
<g id="node11" class="node">
<title>Track&#45;Info</title>
<polygon fill="LightSkyBlue" stroke="transparent" points="389,-342 389,-471 503,-471 503,-342 389,-342"/>
<text text-anchor="start" x="409" y="-459.1" font-family="Arial" font-weight="bold" font-size="8.00">Track&#45;Info: Record</text>
<text text-anchor="start" x="392" y="-443.1" font-family="Arial" font-size="8.00">1 track_number: Integer</text>
<text text-anchor="start" x="392" y="-431.1" font-family="Arial" font-size="8.00">2 title: String</text>
<text text-anchor="start" x="392" y="-419.1" font-family="Arial" font-size="8.00">3 length: Integer</text>
<text text-anchor="start" x="392" y="-407.1" font-family="Arial" font-size="8.00">4 audio_format: Audio&#45;Format</text>
<text text-anchor="start" x="392" y="-395.1" font-family="Arial" font-size="8.00">5 featured_artist: Artist</text>
<text text-anchor="start" x="392" y="-383.1" font-family="Arial" font-size="8.00">6 track_art: Image</text>
<text text-anchor="start" x="392" y="-371.1" font-family="Arial" font-size="8.00">7 genre: Genre</text>
<text text-anchor="start" x="392" y="-359.1" font-family="Arial" font-size="8.00">8 artists: Artists</text>
<text text-anchor="start" x="392" y="-347.1" font-family="Arial" font-size="8.00">9 lyrics: Lyrics</text>
<polygon fill="black" stroke="black" points="390,-451.5 390,-451.5 503,-451.5 503,-451.5 390,-451.5"/>
<polygon fill="none" stroke="black" points="389,-342 389,-471 503,-471 503,-342 389,-342"/>
</g>
<!-- Track&#45;&gt;Track&#45;Info -->
<g id="edge10" class="edge">
<title>Track&#45;&gt;Track&#45;Info</title>
<path fill="none" stroke="black" d="M379.42,-518.73C386.19,-507.42 394.51,-493.53 402.94,-479.43"/>
<polygon fill="black" stroke="black" points="404.5,-480.25 405.56,-475.06 401.49,-478.45 404.5,-480.25"/>
<text text-anchor="middle" x="407" y="-495.4" font-family="Arial" font-size="7.00">metadata</text>
</g>
<!-- Image&#45;Format -->
<g id="node8" class="node">
<title>Image&#45;Format</title>
<polygon fill="palegreen" stroke="transparent" points="651.5,-40 651.5,-97 770.5,-97 770.5,-40 651.5,-40"/>
<text text-anchor="start" x="658" y="-85.1" font-family="Arial" font-weight="bold" font-size="8.00">Image&#45;Format: Enumerated</text>
<text text-anchor="start" x="655" y="-69.1" font-family="Arial" font-size="8.00">1 PNG</text>
<text text-anchor="start" x="655" y="-57.1" font-family="Arial" font-size="8.00">2 JPG</text>
<text text-anchor="start" x="655" y="-45.1" font-family="Arial" font-size="8.00">3 GIF</text>
<polygon fill="black" stroke="black" points="653,-77.5 653,-77.5 771,-77.5 771,-77.5 653,-77.5"/>
<polygon fill="none" stroke="black" points="651.5,-40 651.5,-97 770.5,-97 770.5,-40 651.5,-40"/>
</g>
<!-- Image&#45;&gt;Image&#45;Format -->
<g id="edge7" class="edge">
<title>Image&#45;&gt;Image&#45;Format</title>
<path fill="none" stroke="black" d="M711,-210.77C711,-182.92 711,-138.25 711,-106.61"/>
<polygon fill="black" stroke="black" points="712.75,-106.25 711,-101.25 709.25,-106.25 712.75,-106.25"/>
<text text-anchor="middle" x="732.5" y="-157.4" font-family="Arial" font-size="7.00">image_format</text>
</g>
<!-- Track&#45;Info&#45;&gt;Artist -->
<g id="edge12" class="edge">
<title>Track&#45;Info&#45;&gt;Artist</title>
<path fill="none" stroke="black" d="M380.79,-342.8C377.9,-341.07 374.97,-339.46 372,-338 330.28,-317.53 314.74,-328.21 269,-320 206.28,-308.74 185.63,-321.19 128,-294 114.25,-287.51 101.03,-277.44 90.07,-267.65"/>
<polygon fill="black" stroke="black" points="91.02,-266.14 86.14,-264.06 88.66,-268.73 91.02,-266.14"/>
<text text-anchor="middle" x="292" y="-314.4" font-family="Arial" font-size="7.00">featured_artist</text>
</g>
<!-- Track&#45;Info&#45;&gt;Image -->
<g id="edge13" class="edge">
<title>Track&#45;Info&#45;&gt;Image</title>
<path fill="none" stroke="black" d="M511.26,-368.71C547.84,-347.62 594,-320.2 634,-294 646.88,-285.56 660.62,-275.89 672.87,-267.01"/>
<polygon fill="black" stroke="black" points="673.95,-268.39 676.96,-264.03 671.89,-265.56 673.95,-268.39"/>
<text text-anchor="middle" x="617" y="-314.4" font-family="Arial" font-size="7.00">track_art</text>
</g>
<!-- Audio&#45;Format -->
<g id="node12" class="node">
<title>Audio&#45;Format</title>
<polygon fill="palegreen" stroke="transparent" points="145,-185 145,-290 265,-290 265,-185 145,-185"/>
<text text-anchor="start" x="151" y="-278.1" font-family="Arial" font-weight="bold" font-size="8.00">Audio&#45;Format: Enumerated</text>
<text text-anchor="start" x="148" y="-262.1" font-family="Arial" font-size="8.00">1 MP3</text>
<text text-anchor="start" x="148" y="-250.1" font-family="Arial" font-size="8.00">2 OGG</text>
<text text-anchor="start" x="148" y="-238.1" font-family="Arial" font-size="8.00">3 FLAC</text>
<text text-anchor="start" x="148" y="-226.1" font-family="Arial" font-size="8.00">4 MP4</text>
<text text-anchor="start" x="148" y="-214.1" font-family="Arial" font-size="8.00">5 AAC</text>
<text text-anchor="start" x="148" y="-202.1" font-family="Arial" font-size="8.00">6 WMA</text>
<text text-anchor="start" x="148" y="-190.1" font-family="Arial" font-size="8.00">7 WAV</text>
<polygon fill="black" stroke="black" points="146,-270.5 146,-270.5 265,-270.5 265,-270.5 146,-270.5"/>
<polygon fill="none" stroke="black" points="145,-185 145,-290 265,-290 265,-185 145,-185"/>
</g>
<!-- Track&#45;Info&#45;&gt;Audio&#45;Format -->
<g id="edge11" class="edge">
<title>Track&#45;Info&#45;&gt;Audio&#45;Format</title>
<path fill="none" stroke="black" d="M380.62,-344.16C377.75,-342.02 374.88,-339.96 372,-338 335.18,-312.97 320.2,-316.88 282,-294 280.52,-293.11 279.02,-292.2 277.53,-291.27"/>
<polygon fill="black" stroke="black" points="278.19,-289.62 273.03,-288.45 276.33,-292.59 278.19,-289.62"/>
<text text-anchor="middle" x="358.5" y="-314.4" font-family="Arial" font-size="7.00">audio_format</text>
</g>
<!-- Genre -->
<g id="node13" class="node">
<title>Genre</title>
<polygon fill="palegreen" stroke="transparent" points="299,-185 299,-290 387,-290 387,-185 299,-185"/>
<text text-anchor="start" x="305" y="-278.1" font-family="Arial" font-weight="bold" font-size="8.00">Genre: Enumerated</text>
<text text-anchor="start" x="302" y="-262.1" font-family="Arial" font-size="8.00">1 rock</text>
<text text-anchor="start" x="302" y="-250.1" font-family="Arial" font-size="8.00">2 jazz</text>
<text text-anchor="start" x="302" y="-238.1" font-family="Arial" font-size="8.00">3 hip_hop</text>
<text text-anchor="start" x="302" y="-226.1" font-family="Arial" font-size="8.00">4 electronic</text>
<text text-anchor="start" x="302" y="-214.1" font-family="Arial" font-size="8.00">5 folk_country_world</text>
<text text-anchor="start" x="302" y="-202.1" font-family="Arial" font-size="8.00">6 classical</text>
<text text-anchor="start" x="302" y="-190.1" font-family="Arial" font-size="8.00">7 spoken_word</text>
<polygon fill="black" stroke="black" points="300,-270.5 300,-270.5 387,-270.5 387,-270.5 300,-270.5"/>
<polygon fill="none" stroke="black" points="299,-185 299,-290 387,-290 387,-185 299,-185"/>
</g>
<!-- Track&#45;Info&#45;&gt;Genre -->
<g id="edge14" class="edge">
<title>Track&#45;Info&#45;&gt;Genre</title>
<path fill="none" stroke="black" d="M404.11,-337.57C396.1,-324.59 387.77,-311.09 379.94,-298.39"/>
<polygon fill="black" stroke="black" points="381.41,-297.45 377.3,-294.11 378.43,-299.28 381.41,-297.45"/>
<text text-anchor="middle" x="400" y="-314.4" font-family="Arial" font-size="7.00">genre</text>
</g>
<!-- Artists -->
<g id="node14" class="node">
<title>Artists</title>
<polygon fill="LightSkyBlue" stroke="transparent" points="421.5,-215 421.5,-260 492.5,-260 492.5,-215 421.5,-215"/>
<text text-anchor="start" x="431" y="-248.1" font-family="Arial" font-weight="bold" font-size="8.00">Artists: Array</text>
<text text-anchor="start" x="425" y="-232.1" font-family="Arial" font-size="8.00">1 name: String</text>
<text text-anchor="start" x="425" y="-220.1" font-family="Arial" font-size="8.00">2 company: String</text>
<polygon fill="black" stroke="black" points="423,-240.5 423,-240.5 493,-240.5 493,-240.5 423,-240.5"/>
<polygon fill="none" stroke="black" points="421.5,-215 421.5,-260 492.5,-260 492.5,-215 421.5,-215"/>
</g>
<!-- Track&#45;Info&#45;&gt;Artists -->
<g id="edge15" class="edge">
<title>Track&#45;Info&#45;&gt;Artists</title>
<path fill="none" stroke="black" d="M450.47,-337.57C452.03,-313.97 453.7,-288.64 454.96,-269.5"/>
<polygon fill="black" stroke="black" points="456.72,-269.38 455.3,-264.27 453.23,-269.15 456.72,-269.38"/>
<text text-anchor="middle" x="462" y="-314.4" font-family="Arial" font-size="7.00">artists</text>
</g>
<!-- Lyrics -->
<g id="node15" class="node">
<title>Lyrics</title>
<polygon fill="LightSkyBlue" stroke="transparent" points="527,-230 527,-245 617,-245 617,-230 527,-230"/>
<text text-anchor="start" x="530" y="-236.1" font-family="Arial" font-weight="bold" font-size="8.00">Lyrics: ArrayOf(Lyric)</text>
<polygon fill="none" stroke="black" points="527,-230 527,-245 617,-245 617,-230 527,-230"/>
</g>
<!-- Track&#45;Info&#45;&gt;Lyrics -->
<g id="edge16" class="edge">
<title>Track&#45;Info&#45;&gt;Lyrics</title>
<path fill="none" stroke="black" d="M497.25,-337.57C518.28,-309.7 541.12,-279.43 555.94,-259.78"/>
<polygon fill="black" stroke="black" points="557.55,-260.55 559.17,-255.51 554.76,-258.45 557.55,-260.55"/>
<text text-anchor="middle" x="524.5" y="-314.4" font-family="Arial" font-size="7.00">lyrics</text>
</g>
<!-- Lyric -->
<g id="node16" class="node">
<title>Lyric</title>
<ellipse fill="palegreen" stroke="black" cx="572" cy="-68.5" rx="33.43" ry="18"/>
<text text-anchor="middle" x="572" y="-66.6" font-family="Arial" font-size="8.00">Lyric: String</text>
</g>
<!-- Lyrics&#45;&gt;Lyric -->
<g id="edge17" class="edge">
<title>Lyrics&#45;&gt;Lyric</title>
<path fill="none" stroke="black" d="M572,-219.26C572,-188.88 572,-125.86 572,-92.06"/>
<polygon fill="black" stroke="black" points="573.75,-91.9 572,-86.9 570.25,-91.9 573.75,-91.9"/>
<text text-anchor="middle" x="584.5" y="-157.4" font-family="Arial" font-size="7.00">element</text>
</g>
</g>
</svg>
